<svg width="24" height="22" viewBox="0 0 24 22" fill="none" xmlns="http://www.w3.org/2000/svg">
<path fill-rule="evenodd" clip-rule="evenodd" d="M22.0806 6.54011C21.8113 6.50225 21.4251 6.50001 20.7745 6.50001L5.64711 6.50001C5.17929 6.50001 4.80005 6.16422 4.80005 5.75001C4.80005 5.3358 5.17929 5.00001 5.64711 5.00001L20.7745 5.00001C20.7948 5.00001 20.8151 5.00001 20.8353 5.00001C21.4043 4.99993 21.928 4.99986 22.3463 5.05867C22.8147 5.12453 23.3031 5.28323 23.6486 5.70417C23.9811 6.10935 24.0236 6.56751 23.991 6.98698C23.9603 7.38215 23.8499 7.8675 23.7241 8.42032L23.7135 8.4671C23.2555 10.4813 22.8048 12.3807 21.7449 13.7504C21.1958 14.46 20.4813 15.035 19.5308 15.4256C18.59 15.8121 17.462 16 16.1091 16H7.90593C7.43811 16 7.05887 15.6642 7.05887 15.25C7.05887 14.8358 7.43811 14.5 7.90593 14.5H16.1091C17.2903 14.5 18.1593 14.3355 18.8177 14.0649C19.4664 13.7984 19.9534 13.4116 20.3473 12.9025C21.1737 11.8347 21.5758 10.2686 22.0527 8.17106C22.1922 7.55735 22.2787 7.16947 22.3009 6.884C22.3113 6.74932 22.3038 6.67203 22.2943 6.6291C22.2877 6.59933 22.2811 6.58957 22.2789 6.58685C22.2779 6.58637 22.2767 6.58578 22.2751 6.58509C22.257 6.57691 22.2034 6.55737 22.0806 6.54011Z" fill="white"/>
<path fill-rule="evenodd" clip-rule="evenodd" d="M0 0.774186C0 0.346615 0.402935 0 0.89998 0H2.02609C3.54032 0 4.86024 0.886512 5.22749 2.1502L5.23164 2.16448L8.38061 15.0666C8.48274 15.485 8.1712 15.8955 7.68476 15.9833C7.19832 16.0712 6.72119 15.8032 6.61906 15.3847L3.47753 2.51312C3.30553 1.94544 2.70933 1.54837 2.02609 1.54837H0.89998C0.402935 1.54837 0 1.20176 0 0.774186Z" fill="white"/>
<path fill-rule="evenodd" clip-rule="evenodd" d="M4.80005 17.6905C4.80005 15.6847 6.3646 14 8.36524 14H8.82097C9.27979 14 9.65174 14.3731 9.65174 14.8333C9.65174 15.2936 9.27979 15.6667 8.82097 15.6667H8.36524C7.45406 15.6667 6.6513 16.3643 6.49073 17.3333H18.3693C18.8281 17.3333 19.2 17.7064 19.2 18.1667C19.2 18.6269 18.8281 19 18.3693 19H6.08655C5.3444 19 4.80005 18.3813 4.80005 17.6905Z" fill="white"/>
<path fill-rule="evenodd" clip-rule="evenodd" d="M10.1999 18.6667C9.86853 18.6667 9.5999 19.0398 9.5999 19.5C9.5999 19.9602 9.86853 20.3333 10.1999 20.3333C10.5313 20.3333 10.7999 19.9602 10.7999 19.5C10.7999 19.0398 10.5313 18.6667 10.1999 18.6667ZM8.3999 19.5C8.3999 18.1193 9.20579 17 10.1999 17C11.194 17 11.9999 18.1193 11.9999 19.5C11.9999 20.8807 11.194 22 10.1999 22C9.20579 22 8.3999 20.8807 8.3999 19.5Z" fill="white"/>
<path fill-rule="evenodd" clip-rule="evenodd" d="M18.0001 18.6667C17.5583 18.6667 17.2001 19.0398 17.2001 19.5C17.2001 19.9602 17.5583 20.3333 18.0001 20.3333C18.4419 20.3333 18.8001 19.9602 18.8001 19.5C18.8001 19.0398 18.4419 18.6667 18.0001 18.6667ZM15.6001 19.5C15.6001 18.1193 16.6746 17 18.0001 17C19.3256 17 20.4001 18.1193 20.4001 19.5C20.4001 20.8807 19.3256 22 18.0001 22C16.6746 22 15.6001 20.8807 15.6001 19.5Z" fill="white"/>
</svg>
